<svg width="1600" height="900" viewBox="0 0 1600 900" fill="none" xmlns="http://www.w3.org/2000/svg">
  <rect width="1600" height="900" fill="#EAF2FF"/>
  <rect y="575" width="1600" height="325" fill="#F8FAFC"/>
  <path d="M0 572C151 540 264 548 392 590C527 635 671 647 812 604C1020 540 1145 530 1324 584C1439 619 1527 616 1600 594V900H0V572Z" fill="#DBEAFE"/>
  <rect x="110" y="390" width="145" height="238" rx="12" fill="#1E40AF"/>
  <rect x="286" y="340" width="180" height="288" rx="12" fill="#2563EB"/>
  <rect x="505" y="430" width="132" height="198" rx="12" fill="#0B2A64"/>
  <rect x="1030" y="360" width="165" height="270" rx="12" fill="#1D4ED8"/>
  <rect x="1230" y="410" width="210" height="220" rx="12" fill="#2563EB"/>
  <rect x="345" y="274" width="62" height="66" rx="8" fill="#F59E0B"/>
  <rect x="128" y="420" width="25" height="42" rx="4" fill="#BFDBFE"/>
  <rect x="171" y="420" width="25" height="42" rx="4" fill="#BFDBFE"/>
  <rect x="214" y="420" width="25" height="42" rx="4" fill="#BFDBFE"/>
  <rect x="312" y="380" width="28" height="46" rx="4" fill="#BFDBFE"/>
  <rect x="360" y="380" width="28" height="46" rx="4" fill="#BFDBFE"/>
  <rect x="408" y="380" width="28" height="46" rx="4" fill="#BFDBFE"/>
  <rect x="1060" y="398" width="31" height="48" rx="4" fill="#BFDBFE"/>
  <rect x="1112" y="398" width="31" height="48" rx="4" fill="#BFDBFE"/>
  <rect x="1164" y="398" width="31" height="48" rx="4" fill="#BFDBFE"/>
  <circle cx="735" cy="418" r="92" fill="#FFFFFF" fill-opacity="0.88"/>
  <circle cx="735" cy="390" r="35" fill="#2563EB"/>
  <path d="M660 488C674 441 701 425 735 425C769 425 796 441 810 488" stroke="#2563EB" stroke-width="30" stroke-linecap="round"/>
  <circle cx="910" cy="482" r="70" fill="#FFFFFF" fill-opacity="0.86"/>
  <path d="M877 478L902 503L947 454" stroke="#059669" stroke-width="22" stroke-linecap="round" stroke-linejoin="round"/>
  <circle cx="580" cy="520" r="54" fill="#FFFFFF" fill-opacity="0.78"/>
  <path d="M550 521H610M580 491V551" stroke="#F59E0B" stroke-width="18" stroke-linecap="round"/>
  <path d="M92 682C226 648 353 666 477 706C603 746 712 733 850 688C1008 636 1127 644 1262 695C1390 744 1507 739 1600 707" stroke="#93C5FD" stroke-width="18" stroke-linecap="round"/>
  <rect x="110" y="690" width="1330" height="18" rx="9" fill="#CBD5E1"/>
  <rect x="110" y="730" width="720" height="18" rx="9" fill="#D8E0EE"/>
  <rect x="920" y="730" width="520" height="18" rx="9" fill="#D8E0EE"/>
</svg>
